<svg width="80" height="25" viewBox="0 0 80 25" fill="none" xmlns="http://www.w3.org/2000/svg">
<path d="M24.3094 15.02C22.3919 15.02 20.9074 13.5506 20.9074 11.5914C20.9074 9.69344 22.3919 8.22405 24.3094 8.22405C26.227 8.22405 27.7115 9.69344 27.7115 11.5914C27.7115 13.4894 26.1651 15.02 24.3094 15.02ZM30.495 8.1016V5.77507H26.3507C25.6703 5.46895 24.9898 5.40773 24.3094 5.40773C20.7218 5.40773 17.9383 8.1016 17.9383 11.6526C17.9383 15.2036 20.7218 17.8363 24.2476 17.8363C27.7734 17.8363 30.5569 15.1424 30.5569 11.6526C30.5569 10.4281 30.1857 9.32609 29.5672 8.46895L30.495 8.1016ZM10.5156 15.02C8.59809 15.02 7.11356 13.5506 7.11356 11.5914C7.11356 9.69344 8.59809 8.22405 10.5156 8.22405C12.4331 8.22405 13.9177 9.69344 13.9177 11.5914C13.9177 13.4894 12.495 15.02 10.5156 15.02ZM10.5156 5.40773C6.92799 5.40773 4.20634 8.1016 4.20634 11.5914C4.20634 15.0812 6.98985 17.8363 10.5156 17.8363C14.0414 17.8363 16.8249 15.1424 16.8249 11.6526C16.8249 8.16283 14.1032 5.40773 10.5156 5.40773ZM0.0620117 17.5302H2.96923V0.877113H0.0620117V17.5302ZM31.794 17.5302H34.7012V5.77507H31.794V17.5302ZM24.3094 21.6322C22.3919 21.6322 20.9074 20.1628 20.9074 18.2649H17.9383C17.9383 21.8159 20.7218 24.4485 24.2476 24.4485C27.7734 24.4485 30.6187 21.7547 30.6187 18.2649H27.7115C27.6496 20.2241 26.1651 21.6322 24.3094 21.6322ZM45.6496 10.4281C46.0826 8.89752 47.196 8.04038 48.7424 8.04038C50.2888 8.04038 51.4641 8.89752 51.7734 10.4281H45.6496ZM48.8661 5.40773C45.2785 5.40773 42.6187 8.1016 42.6187 11.6526C42.6187 15.2036 45.0311 17.7138 48.8661 17.7138C50.9074 17.7138 52.8249 16.9179 54.2476 15.5098L52.2063 13.4894C51.2167 14.469 50.1651 15.02 48.928 15.02C47.2579 15.02 46.0826 14.0404 45.7115 12.6322H54.928V11.9587C54.928 8.1016 52.3919 5.40773 48.8661 5.40773ZM74.9692 5.40773C73.4847 5.40773 72.2476 5.89752 71.3816 6.87711V0.815888H68.4744V17.469H71.3816V11.1016C71.3816 9.38732 72.4332 8.28528 74.227 8.28528C75.8971 8.28528 76.8249 9.32609 76.8249 11.1016V17.469H79.7321V10.6118C79.8558 7.36691 77.7527 5.40773 74.9692 5.40773ZM62.1651 8.28528C63.4022 8.28528 64.3919 8.89752 65.196 9.81589L67.2373 7.79548C66.062 6.32609 64.3301 5.46895 62.1651 5.46895C58.5775 5.46895 55.8558 8.16283 55.8558 11.6526C55.8558 15.1424 58.6393 17.8363 62.1651 17.8363C64.2063 17.8363 66.062 16.8567 67.2373 15.5098L65.196 13.4894C64.3919 14.3465 63.3404 15.02 62.1651 15.02C60.2476 15.02 58.8868 13.5506 58.8868 11.6526C58.763 9.75467 60.3094 8.28528 62.1651 8.28528ZM40.6393 2.16283H37.7321V5.77507H36.1857V8.3465H37.7321V17.469H40.6393V8.3465H42.3094V5.77507H40.6393V2.16283ZM33.3404 0.509766C32.2888 0.509766 31.4228 1.36691 31.4228 2.53017C31.4228 3.57099 32.2888 4.42813 33.3404 4.42813C34.5156 4.42813 35.3816 3.57099 35.3816 2.53017C35.2579 1.36691 34.3919 0.509766 33.3404 0.509766Z" fill="#252A2C"/>
</svg>
