<svg width="24" height="24" viewBox="0 0 24 24" fill="none" xmlns="http://www.w3.org/2000/svg">
<path fill-rule="evenodd" clip-rule="evenodd" d="M17 10C15.3431 10 14 11.3431 14 13C14 14.6569 15.3431 16 17 16C18.6569 16 20 14.6569 20 13C20 11.3431 18.6569 10 17 10ZM16 13C16 12.4477 16.4477 12 17 12C17.5523 12 18 12.4477 18 13C18 13.5523 17.5523 14 17 14C16.4477 14 16 13.5523 16 13Z" fill="#252A2C"/>
<path d="M7 10C7.55228 10 8 10.4477 8 11V12H9C9.55228 12 10 12.4477 10 13C10 13.5523 9.55228 14 9 14H8V15C8 15.5523 7.55228 16 7 16C6.44772 16 6 15.5523 6 15V14H5C4.44772 14 4 13.5523 4 13C4 12.4477 4.44772 12 5 12H6V11C6 10.4477 6.44772 10 7 10Z" fill="#252A2C"/>
<path fill-rule="evenodd" clip-rule="evenodd" d="M19 3C20.6569 3 22 1.65685 22 0H20C20 0.552285 19.5523 1 19 1H14C12.3431 1 11 2.34315 11 4V7H7C3.68629 7 1 9.68629 1 13C1 16.3137 3.68629 19 7 19C8.74755 19 10.3218 18.2516 11.417 17.0608C11.4447 17.0308 11.4704 17.0137 11.4872 17.0056C11.4909 17.0039 11.4938 17.0026 11.4962 17.0018L11.5 17.0005H12.4987C12.5007 17.0009 12.5055 17.0023 12.5133 17.0061C12.5301 17.0142 12.5558 17.0313 12.5835 17.0613C13.6787 18.2518 15.2527 19 17 19C20.3138 19 23 16.3137 23 13C23 9.68629 20.3138 7 17 7H13V4C13 3.44772 13.4477 3 14 3H19ZM7 9C4.79086 9 3 10.7909 3 13C3 15.2091 4.79086 17 7 17C8.16503 17 9.21256 16.5032 9.94497 15.7069C10.31 15.3101 10.855 15 11.4999 15H12.5C13.1448 15 13.6904 15.3105 14.0554 15.7072C14.7878 16.5033 15.8352 17 17 17C19.2092 17 21 15.2091 21 13C21 10.7909 19.2092 9 17 9H7Z" fill="#252A2C"/>
</svg>
