<svg width="24" height="24" viewBox="0 0 24 24" fill="none" xmlns="http://www.w3.org/2000/svg">
<path fill-rule="evenodd" clip-rule="evenodd" d="M12 2C9.61305 2 7.32387 2.94821 5.63604 4.63604C3.94821 6.32387 3 8.61305 3 11V14C3 16.2091 4.79086 18 7 18H8C9.10457 18 10 17.1046 10 16V11C10 9.89543 9.10457 9 8 9H7C6.34306 9 5.72311 9.15837 5.17624 9.43901C5.46753 8.16582 6.11194 6.98856 7.05025 6.05025C8.36301 4.7375 10.1435 4 12 4C13.8565 4 15.637 4.7375 16.9497 6.05025C17.8881 6.98856 18.5325 8.16582 18.8238 9.43901C18.2769 9.15837 17.6569 9 17 9H16C14.8954 9 14 9.89543 14 11V16C14 17.1046 14.8954 18 16 18C16 18.0203 16.0006 18.0406 16.0019 18.0608C16.0161 18.2947 15.9376 18.5247 15.7833 18.701C15.6355 18.8699 15.4296 18.9765 15.2071 19H12C11.4477 19 11 19.4477 11 20C11 20.5523 11.4477 21 12 21H15.25C15.2741 21 15.2982 20.9991 15.3222 20.9974C16.081 20.9424 16.7875 20.5905 17.2884 20.018C17.782 19.4539 18.0368 18.7205 18 17.9728V17.874C19.7252 17.4299 21 15.8638 21 14V11C21 8.61305 20.0518 6.32387 18.364 4.63604C16.6761 2.94821 14.3869 2 12 2ZM17 16C18.1046 16 19 15.1046 19 14V13C19 11.8954 18.1046 11 17 11H16V16H17ZM5 14V13C5 11.8954 5.89543 11 7 11H8V16H7C5.89543 16 5 15.1046 5 14Z" fill="#252A2C"/>
</svg>
