<svg width="24" height="24" viewBox="0 0 24 24" fill="none" xmlns="http://www.w3.org/2000/svg">
<path fill-rule="evenodd" clip-rule="evenodd" d="M19 3C20.6569 3 22 1.65685 22 0H20C20 0.552285 19.5523 1 19 1H14C12.3431 1 11 2.34315 11 4C7.68629 4 5 6.68629 5 10V17C5 20.3137 7.68629 23 11 23H13C16.3137 23 19 20.3137 19 17V10C19 6.68629 16.3137 4 13 4C13 3.44772 13.4477 3 14 3H19ZM11 6C8.79086 6 7 7.79086 7 10H11V6ZM7 17V12H17V17C17 19.2091 15.2091 21 13 21H11C8.79086 21 7 19.2091 7 17ZM13 6C15.2091 6 17 7.79086 17 10H13V6Z" fill="#252A2C"/>
</svg>
