<svg width="24" height="24" viewBox="0 0 24 24" fill="none" xmlns="http://www.w3.org/2000/svg">
<path fill-rule="evenodd" clip-rule="evenodd" d="M3 11C3 6.02944 7.02944 2 12 2C16.9706 2 21 6.02944 21 11C21 14.4608 19.0467 17.4653 16.1823 18.9713L17.5352 21.0005H19C19.5523 21.0005 20 21.4482 20 22.0005C20 22.5528 19.5523 23.0005 19 23.0005H17.0155C17.0058 23.0007 16.996 23.0007 16.9863 23.0005H7.01367C7.00395 23.0007 6.99422 23.0007 6.98449 23.0005H5C4.44772 23.0005 4 22.5528 4 22.0005C4 21.4482 4.44772 21.0005 5 21.0005H6.46478L7.81749 18.9712C4.95327 17.4652 3 14.4607 3 11ZM5.07089 10C5.55612 6.60771 8.47353 4 12 4C15.5265 4 18.4439 6.60771 18.9291 10H14.8293C14.4175 8.83481 13.3062 8 12 8C10.6938 8 9.58254 8.83481 9.17071 10H5.07089ZM18.9291 12C18.4439 15.3923 15.5265 18 12 18C8.47353 18 5.55612 15.3923 5.07089 12H9.17071C9.58254 13.1652 10.6938 14 12 14C13.3062 14 14.4175 13.1652 14.8293 12H18.9291ZM13 11C13 10.4477 12.5523 10 12 10C11.4477 10 11 10.4477 11 11C11 11.5523 11.4477 12 12 12C12.5523 12 13 11.5523 13 11ZM8.86838 21.0005L9.72808 19.7108C10.4538 19.8995 11.2152 20 12 20C12.7847 20 13.546 19.8996 14.2717 19.7108L15.1315 21.0005H8.86838Z" fill="#252A2C"/>
</svg>
